<?xml version="1.0" encoding="UTF-8"?>
<svg xmlns="http://www.w3.org/2000/svg" width="210" height="230" version="1.1" viewBox="0 0 210 230">
  <!-- Generator: Adobe Illustrator 28.6.0, SVG Export Plug-In . SVG Version: 1.2.0 Build 709)  -->
  <g>
    <g id="Layer_1">
      <g>
        <path d="M202.8,198.3h2.1V0H4.9v198.4h2.4c13.1,0,24.8-5.8,32.8-14.9,8,9.1,19.5,14.9,32.6,14.9s24.5-5.6,32.5-14.6c8,9,19.6,14.6,32.6,14.6s24.5-5.8,32.4-14.7c7.9,8.9,19.6,14.6,32.6,14.6h0ZM87.4,138.8c4.2,4,6.8,9.6,6.8,15.8,0,12-9.7,21.7-21.7,21.7s-21.7-9.7-21.7-21.7v-46.9l36.6,31.1ZM100.9,122.1c-11.3-9.4-50.1-43.4-50.1-43.4v-27.1l101.6,87.2c4.2,4,6.8,9.6,6.8,15.8,0,12-9.7,21.7-21.7,21.7s-21.7-9.7-21.7-21.7c0,0,2.3-18.1-14.9-32.5ZM167.6,123.4c-13.5-11.4-116.8-99.8-116.8-99.8V2.6h151.5v173.8c-12,0-21.4-9.7-21.4-21.7.1-.1,1.3-18.9-13.3-31.3ZM7.5,2.5h21.7v152.1c0,12-9.7,21.7-21.7,21.7V2.5Z"/>
        <g>
          <path d="M206.5,215.6c-.4-5-4.6-5.9-8.2-5.9-5.7,0-7.3,3.3-7.3,6,0,6.7,11.3,4.4,11.3,7.4s-.6,1.8-3,1.8-4-1.1-4-2.6h-4.9c.1,4.8,4.6,6.2,8.7,6.2s8-.9,8-6.1-11.4-4.5-11.4-7.3.3-1.7,2.9-1.7,3,1.2,3.2,2.3h4.7Z"/>
          <path d="M9.3,205.4h-4.8v4.8h-2.5v3.3h2.5v10.8c0,2.3.8,3.8,4.9,3.8h.6c.8,0,1.5,0,2.3-.1v-3.5c-.3,0-.7.1-1,.1-1.9,0-2-.4-2-1.4v-9.7h3v-3.3h-3v-4.8Z"/>
          <path d="M14.6,228h4.8v-9.3c0-2,.7-4.2,4.4-4.2s1,0,1.4.1v-4.7c-.3,0-.6-.1-.9-.1-2.9,0-4,1.7-5,3.5h0v-3.1h-4.6s0,17.8,0,17.8Z"/>
          <path d="M44.8,219.1c0-6.4-4.4-9.4-9.3-9.4s-9.3,2.9-9.3,9.4,4.4,9.4,9.3,9.4c4.9,0,9.3-3,9.3-9.4ZM39.9,219.1c0,2.3-.7,5.4-4.4,5.4s-4.4-3.1-4.4-5.4.7-5.4,4.4-5.4c3.7-.1,4.4,3.1,4.4,5.4Z"/>
          <path d="M46.9,210.2v17.8h4.8v-17.8h-4.8ZM51.7,203.7h-4.8v4.3h4.8v-4.3Z"/>
          <path d="M69.5,215.6c-.4-5-4.6-5.9-8.2-5.9-5.7,0-7.3,3.3-7.3,6,0,6.7,11.3,4.4,11.3,7.4s-.6,1.8-3,1.8-4-1.1-4-2.6h-4.9c0,4.8,4.6,6.2,8.7,6.2s8-.9,8-6.1-11.4-4.5-11.4-7.3.3-1.7,2.9-1.7,3,1.2,3.2,2.3h4.7Z"/>
          <path d="M89,216.4h-14.7v4.3h14.7v-4.3Z"/>
          <path d="M93.8,228h4.8v-9.3c0-2,.7-4.2,4.4-4.2s1,0,1.4.1v-4.7c-.3,0-.6-.1-.9-.1-2.9,0-4,1.7-5,3.5h0v-3.1h-4.6v17.8h0Z"/>
          <path d="M106.6,210.2v17.8h4.8v-17.8h-4.8ZM111.4,203.7h-4.8v4.3h4.8v-4.3Z"/>
          <path d="M131.9,210.2h-5.1l-3.9,13.1h0l-3.8-13.1h-5.3l6.5,17.8h5l6.6-17.8Z"/>
          <path d="M134.3,210.2v17.8h4.8v-17.8h-4.8ZM139.1,203.7h-4.8v4.3h4.8v-4.3Z"/>
          <path d="M153.3,222.7c-.4,1.3-1.7,1.9-3.1,1.9-3.9,0-4.1-3-4.3-4.4h12.5v-.8c0-8.1-4.9-9.8-8.5-9.8-8,0-8.7,6.9-8.7,9,0,7.3,3.9,9.7,9,9.7s6.7-1.4,8-5.7h-4.9ZM146.1,217.3c.3-2.3,1.5-3.7,3.7-3.7s3.4.9,3.7,3.7h-7.4Z"/>
          <path d="M160.6,228h4.8v-9.3c0-2,.7-4.2,4.4-4.2s.9,0,1.4.1v-4.7c-.3,0-.6-.1-.9-.1-2.9,0-4,1.7-5,3.5h-.1v-3.1h-4.6v17.8h0Z"/>
          <path d="M183.9,222.7c-.4,1.3-1.7,1.9-3.1,1.9-3.9,0-4.1-3-4.3-4.4h12.5v-.8c0-8.1-4.9-9.8-8.5-9.8-8,0-8.7,6.9-8.7,9,0,7.3,3.9,9.7,9,9.7s6.7-1.4,8-5.7h-4.9ZM176.7,217.3c.3-2.3,1.5-3.7,3.7-3.7s3.4.9,3.7,3.7h-7.4Z"/>
          <path d="M154.4,203.7h-9.5v4.3h9.5v-4.3Z"/>
        </g>
      </g>
    </g>
  </g>
</svg>